<?xml version="1.0" encoding="UTF-8" standalone="no"?>
<!-- Created with Inkscape (http://www.inkscape.org/) -->

<svg
   width="196.7755mm"
   height="108.9934mm"
   viewBox="0 0 196.7755 108.9934"
   version="1.1"
   id="svg5"
   inkscape:version="1.1.2 (b8e25be833, 2022-02-05)"
   sodipodi:docname="Air Koryo.svg"
   xmlns:inkscape="http://www.inkscape.org/namespaces/inkscape"
   xmlns:sodipodi="http://sodipodi.sourceforge.net/DTD/sodipodi-0.dtd"
   xmlns="http://www.w3.org/2000/svg"
   xmlns:svg="http://www.w3.org/2000/svg">
  <sodipodi:namedview
     id="namedview7"
     pagecolor="#ffffff"
     bordercolor="#666666"
     borderopacity="1.0"
     inkscape:pageshadow="2"
     inkscape:pageopacity="0.0"
     inkscape:pagecheckerboard="0"
     inkscape:document-units="mm"
     showgrid="false"
     inkscape:zoom="0.90583672"
     inkscape:cx="308.5545"
     inkscape:cy="326.76971"
     inkscape:window-width="1920"
     inkscape:window-height="1017"
     inkscape:window-x="-8"
     inkscape:window-y="-8"
     inkscape:window-maximized="1"
     inkscape:current-layer="layer1" />
  <defs
     id="defs2">
    <style
       id="style836">
      .cls-1 {
        fill: #1a163c;
      }

      .cls-1, .cls-2, .cls-3 {
        fill-rule: evenodd;
      }

      .cls-2 {
        fill: #db1b15;
      }

      .cls-3 {
        fill: #161550;
      }
    </style>
  </defs>
  <g
     inkscape:label="Layer 1"
     inkscape:groupmode="layer"
     id="layer1"
     transform="translate(-3.2249033,-3.0085874)">
    <g
       id="g853"
       transform="matrix(0.70268486,0,0,0.70268486,-200.1938,198.37781)">
      <path
         id="Air_Koryo"
         class="cls-1"
         d="m 324.66455,-192.92357 0.62631,-11.13558 h -3.0811 l -5.34109,11.13558 h 2.10936 l 0.97689,-2.17981 h 2.62655 l -0.19043,2.17943 h 2.27446 z m -1.49752,-9.30615 -0.4713,5.61549 h -2.04709 z m 5.88076,9.30615 2.98342,-11.13558 h -2.27465 l -2.98342,11.13558 z m 5.00365,0 1.27853,-4.77229 h 0.78589 c 1.05458,0 1.33299,0.35001 1.06011,1.36803 l -0.54558,2.03623 c -0.15767,0.58861 -0.21918,1.04983 -0.15977,1.36803 h 2.31616 c -0.0844,-0.30221 -0.0478,-0.74761 0.11426,-1.35203 l 0.52424,-1.95664 c 0.35382,-1.32041 0.0705,-2.11582 -0.87882,-2.35443 l 0.009,-0.0318 q 1.61044,-0.45341 2.07698,-2.19525 l 0.18338,-0.68401 c 0.46446,-1.73402 -0.34771,-2.56124 -2.68502,-2.56124 h -3.37054 l -2.98342,11.13559 h 2.27465 z m 2.55724,-9.54476 h 1.03383 c 0.76513,0 1.05572,0.38086 0.85121,1.14542 l -0.23023,0.85901 c -0.22585,0.84321 -0.77028,1.17722 -1.68013,1.17722 h -0.82722 z m 25.04644,9.54476 -0.86206,-7.04712 3.80416,-4.08846 h -2.31597 l -4.13645,4.78828 1.2829,-4.78828 h -2.27464 l -2.98342,11.13558 h 2.27446 l 0.89938,-3.35646 1.36403,-1.46362 0.56956,4.82008 z m 2.34035,-2.64065 c -0.4774,1.78163 0.46997,2.79927 2.70406,2.79927 2.23408,0 3.72608,-1.01821 4.20348,-2.79927 l 1.56835,-5.8541 c 0.4774,-1.78162 -0.46978,-2.79927 -2.70311,-2.79927 -2.23332,0 -3.72589,1.01803 -4.20329,2.79927 z m 4.60204,0.1114 q -0.29383,1.09762 -1.47257,1.09762 -1.17874,0 -0.88472,-1.09762 l 1.62814,-6.0769 q 0.29421,-1.09761 1.47276,-1.09761 1.17856,0 0.88454,1.09761 z m 6.43509,2.52925 1.27871,-4.77229 h 0.7857 c 1.05459,0 1.33299,0.35001 1.0603,1.36803 l -0.54557,2.03623 c -0.15768,0.58861 -0.21918,1.04983 -0.15977,1.36803 h 2.31597 c -0.0844,-0.30221 -0.0478,-0.74761 0.11425,-1.35203 l 0.52425,-1.95664 c 0.35362,-1.32041 0.0705,-2.11582 -0.87882,-2.35443 l 0.009,-0.0318 q 1.61043,-0.45341 2.07698,-2.19525 l 0.18338,-0.68401 c 0.46445,-1.73402 -0.34772,-2.56124 -2.68501,-2.56124 h -3.37056 l -2.98208,11.1354 z m 2.55743,-9.54476 h 1.03401 c 0.76514,0 1.05573,0.38086 0.85121,1.14542 l -0.23041,0.85901 c -0.22585,0.84321 -0.77028,1.17722 -1.68014,1.17722 h -0.82721 z m 8.54673,9.54476 1.26995,-4.74048 4.4636,-6.3951 h -2.21256 l -2.68388,4.1513 -0.45911,-4.1513 h -2.41842 l 1.03687,6.3951 -1.27015,4.74048 h 2.27465 z m 4.94614,-2.64065 c -0.4774,1.78163 0.46979,2.79927 2.70406,2.79927 2.23428,0 3.72608,-1.01821 4.20329,-2.79927 l 1.56854,-5.8541 c 0.4774,-1.78162 -0.46978,-2.79927 -2.7031,-2.79927 -2.23333,0 -3.72608,1.01803 -4.20348,2.79927 z m 4.60204,0.1114 q -0.29421,1.09762 -1.47275,1.09762 -1.17856,0 -0.88454,-1.09762 l 1.62815,-6.0769 q 0.29383,-1.09761 1.47276,-1.09761 1.17893,0 0.88453,1.09761 z"
         style="stroke-width:0.190427" />
      <path
         id="Bue"
         class="cls-1"
         d="m 296.7181,-187.9262 h 125.05854 v 2.22628 H 296.7181 Z"
         style="stroke-width:0.190427" />
      <path
         id="Red"
         class="cls-2"
         d="m 296.7181,-183.17887 h 125.05854 v 3.55908 H 296.7181 Z"
         style="stroke-width:0.190427" />
      <path
         id="Bird"
         class="cls-3"
         d="m 501.18951,-151.30532 c 0,0 12.54222,19.30553 40.43688,19.30553 12.35462,0 26.95489,-5.82171 26.95489,-5.82171 0,0 2.52974,-0.32328 -0.7094,2.12907 -3.23914,2.45235 -42.05235,12.76987 -84.42069,12.76987 -42.36834,0 -109.97046,-12.77625 -109.97046,-12.77625 0,0 -51.62042,0.58099 -82.99099,-9.21748 -3.14807,-0.98349 2.12816,-2.12816 2.12816,-2.12816 0,0 27.77447,1.42334 29.08579,0 1.31131,-1.42332 5.48385,-4.90378 9.22203,-4.96662 3.73816,-0.0628 30.53914,8.11652 34.76178,9.93325 4.22262,1.81672 13.47744,0.70939 13.47744,0.70939 0,0 54.76667,0.65565 58.89641,-42.56961 1.33774,-13.99922 -8.69295,-17.03438 -12.07414,-19.15617 -3.38121,-2.12179 -12.24444,-3.32839 -7.80417,-14.18956 4.44027,-10.86118 21.1532,-29.86438 35.47572,-31.22121 14.32252,-1.35686 42.57506,-19.50406 55.33491,-29.08852 4.74716,-3.56697 -10.26197,15.69302 -10.64262,18.44679 -1.87591,13.60403 -7.09387,20.57496 -7.09387,20.57496 0,0 0.74672,7.41442 -12.06049,13.47744 -8.89602,4.21351 -9.21748,14.61937 -9.21748,14.89894 0,0.27957 21.74695,15.55643 24.11552,33.34574 0.35059,2.64085 6.45915,2.44052 7.09386,2.83847 0.63473,0.39795 2.23745,18.96767 -28.37638,30.50636 -5.67054,2.13819 -2.76743,4.96662 -2.76743,4.96662 0,0 1.10551,1.44063 4.8956,0 3.79007,-1.44062 24.38687,-9.61543 26.24913,-12.76714 z"
         style="stroke-width:0.910638" />
    </g>
  </g>
</svg>
