<svg height="446" viewBox="3.784 2.55 1011.526 173.766" width="2500" xmlns="http://www.w3.org/2000/svg"><g fill-rule="evenodd"><path d="m505.339 102.547 3.289-58.477h-16.18l-28.048 58.477h11.077l5.13-11.447h13.793l-1 11.445h11.944zm-7.864-48.87-2.475 29.489h-10.75zm30.882 48.87 15.667-58.477h-11.945l-15.667 58.477zm26.276 0 6.714-25.061h4.127c5.538 0 7 1.838 5.567 7.184l-2.865 10.693c-.828 3.091-1.151 5.513-.839 7.184h12.163c-.443-1.587-.251-3.926.6-7.1l2.753-10.275c1.858-6.934.37-11.111-4.615-12.364l.045-.167q8.457-2.381 10.907-11.528l.963-3.592c2.439-9.106-1.826-13.45-14.1-13.45h-17.7l-15.667 58.477h11.945zm13.429-50.123h5.429c4.018 0 5.544 2 4.47 6.015l-1.209 4.511c-1.186 4.428-4.045 6.182-8.823 6.182h-4.344zm131.528 50.123-4.527-37.007 19.977-21.47h-12.162l-21.722 25.145 6.737-25.145h-11.945l-15.667 58.477h11.944l4.723-17.626 7.163-7.686 2.991 25.312zm12.29-13.867c-2.507 9.356 2.468 14.7 14.2 14.7s19.567-5.347 22.074-14.7l8.236-30.742c2.507-9.356-2.467-14.7-14.195-14.7s-19.566 5.346-22.073 14.7zm24.167.585q-1.543 5.764-7.733 5.764t-4.646-5.764l8.55-31.912q1.545-5.764 7.734-5.764t4.645 5.764zm33.793 13.282 6.715-25.061h4.126c5.538 0 7 1.838 5.568 7.184l-2.865 10.693c-.828 3.091-1.151 5.513-.839 7.184h12.162c-.443-1.587-.251-3.926.6-7.1l2.753-10.275c1.857-6.934.37-11.111-4.615-12.364l.045-.167q8.457-2.381 10.907-11.528l.963-3.592c2.439-9.106-1.826-13.45-14.1-13.45h-17.7l-15.66 58.476zm13.43-50.123h5.43c4.018 0 5.544 2 4.47 6.015l-1.21 4.511c-1.186 4.428-4.045 6.182-8.823 6.182h-4.344zm44.882 50.123 6.669-24.894 23.44-33.583h-11.619l-14.094 21.8-2.411-21.8h-12.7l5.445 33.583-6.67 24.894h11.945zm25.974-13.867c-2.507 9.356 2.467 14.7 14.2 14.7s19.567-5.347 22.073-14.7l8.237-30.742c2.507-9.356-2.467-14.7-14.195-14.7s-19.567 5.346-22.074 14.7zm24.167.585q-1.545 5.764-7.734 5.764t-4.645-5.764l8.55-31.912q1.543-5.764 7.734-5.764t4.645 5.764zm-519.711 39.525h656.728v11.691h-656.728z" fill="#1a163c"/><path d="m358.582 153.72h656.728v18.69h-656.728z" fill="#db1b15"/><path d="m238.617 145.148s13.773 21.2 44.405 21.2c13.567 0 29.6-6.393 29.6-6.393s2.778-.355-.779 2.338-46.179 14.023-92.705 14.023-120.762-14.03-120.762-14.03-56.686.638-91.135-10.122c-3.457-1.08 2.337-2.337 2.337-2.337s30.5 1.563 31.94 0 6.022-5.385 10.127-5.454 33.536 8.913 38.173 10.908 14.8.779 14.8.779 60.141.72 64.676-46.747c1.469-15.373-9.546-18.706-13.259-21.036s-13.446-3.655-8.57-15.582 23.229-32.795 38.957-34.285 46.753-21.418 60.765-31.943c5.213-3.917-11.269 17.233-11.687 20.257-2.06 14.939-7.79 22.594-7.79 22.594s.82 8.142-13.244 14.8c-9.769 4.627-10.122 16.054-10.122 16.361s23.881 17.083 26.482 36.618c.385 2.9 7.093 2.68 7.79 3.117s2.457 20.829-31.161 33.5c-6.227 2.348-3.039 5.454-3.039 5.454s1.214 1.582 5.376 0 26.78-10.559 28.825-14.02z" fill="#161550"/></g></svg>