<svg xmlns="http://www.w3.org/2000/svg" xmlns:xlink="http://www.w3.org/1999/xlink" xml:space="preserve" width="1078.9224" height="200" x="0px" y="0px" viewBox="0 0 1078.9224 199.99999"><defs><radialGradient id="m" cx="-466.7485" cy="509.56689" r="1.0244" gradientTransform="matrix(13.3773 0 0 12.7366 6263.541 -6479.065)" gradientUnits="userSpaceOnUse"><stop offset="0" style="stop-color:#c95666"/><stop offset="0.0956" style="stop-color:#ca5a69"/><stop offset="0.2053" style="stop-color:#ce6673"/><stop offset="0.3219" style="stop-color:#d47b84"/><stop offset="0.4434" style="stop-color:#dd989e"/><stop offset="0.5675" style="stop-color:#eabcc1"/><stop offset="0.638" style="stop-color:#f2d3d9"/><stop offset="0.7246" style="stop-color:#f4d8dd"/><stop offset="0.837" style="stop-color:#f7e5e8"/><stop offset="0.9631" style="stop-color:#fef9fa"/><stop offset="1" style="stop-color:#fff"/></radialGradient><radialGradient id="s" cx="-474.08841" cy="509.03961" r="1.0235" gradientTransform="translate(10563.096 -11284.111) scale(22.1936)" gradientUnits="userSpaceOnUse"><stop offset="0" style="stop-color:#c95666"/><stop offset="0.3067" style="stop-color:#c95666"/><stop offset="0.368" style="stop-color:#cb5f6d"/><stop offset="0.4741" style="stop-color:#d37982"/><stop offset="0.6125" style="stop-color:#e0a2a7"/><stop offset="0.7607" style="stop-color:#f2d3d9"/><stop offset="1" style="stop-color:#f2d3d9"/></radialGradient><radialGradient id="q" cx="-462.87701" cy="509.8511" r="1.0247" gradientTransform="translate(5132.798 -5614.337) scale(11.0578)" gradientUnits="userSpaceOnUse"><stop offset="0" style="stop-color:#fff"/><stop offset="0.0675" style="stop-color:#fff"/><stop offset="0.2183" style="stop-color:#faedef"/><stop offset="0.4294" style="stop-color:#f2d3d9"/><stop offset="0.6887" style="stop-color:#dc959b"/><stop offset="0.8977" style="stop-color:#ce6774"/><stop offset="1" style="stop-color:#c95666"/></radialGradient><radialGradient id="k" cx="-464.70609" cy="509.6362" r="1.0258" gradientTransform="translate(5602.133 -6115.1) scale(12.0161)" gradientUnits="userSpaceOnUse"><stop offset="0" style="stop-color:#c95666"/><stop offset="0.2086" style="stop-color:#c95666"/><stop offset="0.298" style="stop-color:#ca5b6a"/><stop offset="0.4185" style="stop-color:#cf6b76"/><stop offset="0.5569" style="stop-color:#d7848c"/><stop offset="0.7085" style="stop-color:#e2a7ac"/><stop offset="0.8693" style="stop-color:#f2d3d8"/><stop offset="0.8712" style="stop-color:#f2d3d9"/><stop offset="1" style="stop-color:#f2d3d9"/></radialGradient><radialGradient id="i" cx="-469.44089" cy="509.35889" r="1.0239" gradientTransform="translate(7355.961 -7938.847) scale(15.6279)" gradientUnits="userSpaceOnUse"><stop offset="0" style="stop-color:#fff"/><stop offset="0.0675" style="stop-color:#fff"/><stop offset="0.1978" style="stop-color:#faedef"/><stop offset="0.3804" style="stop-color:#f2d3d9"/><stop offset="0.6619" style="stop-color:#dc959b"/><stop offset="0.8889" style="stop-color:#ce6774"/><stop offset="1" style="stop-color:#c95666"/></radialGradient><radialGradient id="o" cx="-456.84961" cy="510.2388" r="1.024" gradientTransform="translate(3988.446 -4412.469) scale(8.6989)" gradientUnits="userSpaceOnUse"><stop offset="0" style="stop-color:#fff"/><stop offset="0.1712" style="stop-color:#faedef"/><stop offset="0.411" style="stop-color:#f2d3d9"/><stop offset="0.6787" style="stop-color:#dc959b"/><stop offset="0.8944" style="stop-color:#ce6774"/><stop offset="1" style="stop-color:#c95666"/></radialGradient><radialGradient id="u" cx="-463.8887" cy="509.74371" r="1.0240999" gradientTransform="translate(5387.234 -5873.453) scale(11.5694)" gradientUnits="userSpaceOnUse"><stop offset="0" style="stop-color:#fff"/><stop offset="0.092" style="stop-color:#fff"/><stop offset="0.2096" style="stop-color:#faedef"/><stop offset="0.3742" style="stop-color:#f2d3d9"/><stop offset="0.4169" style="stop-color:#ebc1c6"/><stop offset="0.5149" style="stop-color:#de9ba1"/><stop offset="0.61" style="stop-color:#d57d85"/><stop offset="0.7001" style="stop-color:#ce6774"/><stop offset="0.7833" style="stop-color:#ca5a6a"/><stop offset="0.8528" style="stop-color:#c95666"/><stop offset="1" style="stop-color:#c95666"/></radialGradient><clipPath id="l"><use xlink:href="#a" width="100%" height="100%" overflow="visible"/></clipPath><clipPath id="r"><use xlink:href="#b" width="100%" height="100%" overflow="visible"/></clipPath><clipPath id="p"><use xlink:href="#c" width="100%" height="100%" overflow="visible"/></clipPath><clipPath id="j"><use xlink:href="#d" width="100%" height="100%" overflow="visible"/></clipPath><clipPath id="h"><use xlink:href="#e" width="100%" height="100%" overflow="visible"/></clipPath><clipPath id="n"><use xlink:href="#f" width="100%" height="100%" overflow="visible"/></clipPath><clipPath id="t"><use xlink:href="#g" width="100%" height="100%" overflow="visible"/></clipPath><path id="a" d="M21.641 7.075c-.094.01-.197.028-.312.046-.727.134-1.096.262-1.811.193-.117-.012-.563-.036-.694-.05a3.846 3.846 0 0 0-1.273.154c-.626.188-.967.709-1.531.998-.623.318-1.323.09-1.921.451-.601.363-1.307 1.663-1.528 3.3-.072.546.304 1.061.231 1.682-.319 2.663.438 2.059 1.005 3.138 1.062 2.011.955 2.625.426 2.516.589.708 1.129 1.613.693 2.187 1.814.389 4.119-.104 5.002-.785.723-.554 1.718-1.096 2.27-1.793.479-.612 1.369-2.551 1.761-3.2.62-1.009 1.291-1.216 1.773-3.102.808-3.143-.787-4.488-2.478-5.199-.529-.221-1.213-.538-1.561-.538-.019 0-.036 0-.052.002"/><path id="b" d="M27.049 13.694c-.632.111-1.295.571-1.744.883-.502.396-.803 1.387-1.312 1.688-1.163.543-1.2.824-1.836 1.835-.522.831-1.18 1.999-1.694 2.902-.009.351.021.702.087 1.041.103.566.754 1.471.737 1.969l.026-.197c.532 2.885 6.412 3.758 5.327 2.35-2.792-3.631 1.558-5.411 2.106-4.732 3.415 4.249 4.793 1.75 5.121 1.315.704-.951 1.25-1.918 1.423-2.852 1.089-6.034-2.292-5.186-4.197-6.014a3.252 3.252 0 0 0-.309.003c-.731.043-1.104.122-1.799-.041-.111-.027-.223-.051-.332-.08a2.201 2.201 0 0 1-.34-.058 4.142 4.142 0 0 0-.684-.061c-.187 0-.379.014-.58.049"/><path id="c" d="M2.284 20.063c-.022 1.102.865 2.292 1.347 3.234.699 1.365 1.335 1.423 2.576 2.092 1.038.558 1.691 1.212 2.279 2.339 1.517 2.918 3.168.198 4.491-.869.974-.796 1.574-2.565 1.289-3.837-.192-.843-.88-2.072-1.585-2.596l.443.297c-.562-.552-.135-1.246-.381-1.911-.219-.594-.571-1.313-.887-1.968-.469-.98-1.008-.733-1.487-.488-.256.131-.498.262-.703.206-.625-.162-1.524-.365-2.112-.599a3.31 3.31 0 0 0-1.208-.229c-2.11 0-4.008 2.036-4.062 4.329"/><path id="d" d="M21.167 6.733a3.216 3.216 0 0 0-.298.042c-.706.136-1.052.24-1.741.175a12.164 12.164 0 0 0-.672-.035 3.705 3.705 0 0 0-1.229.151c-.602.183-.928.695-1.473.971-.596.311-1.271.089-1.847.442-1.075.658-1.047 2.313-1.567 3.352-.43.858-.396 2.066-.812 2.985a5 5 0 0 0 .186.978c.159.518 1.16.479.978 1.475l.038.162c.802 2.662 5.557 2.003 6.914.962.687-.533 2.004-.961 2.534-1.627.462-.589 1.963-1.06 2.342-1.69.588-.982 1.349-2.303 1.279-3.201-.22-2.78-1.903-4.061-3.204-4.658-.618-.282-.802-.485-1.351-.485l-.077.001"/><path id="e" d="M20.87 6.775c-.706.136-1.056.254-1.744.19-.625-.064-1.224-.108-1.898.101-.602.183-.928.695-1.473.971-.596.311-1.271.089-1.847.442-1.075.658-1.047 2.313-1.567 3.352-.577 1.146-.326 2.927-1.417 3.799 0 0-.065.051-.157.072a1.83 1.83 0 0 1-.209.016c-.502-.013-1.981-.855-2.633-.89-.34-.019-.506.167-.828.197-.151.014-.285 0-.409-.011a2.121 2.121 0 0 0-.392-.011c-.458.046-.996.229-1.393.43a3.422 3.422 0 0 0-1.122.824c-.437.471-.384.646-.634 1.174-.545 1.167-1.088 1.672-.855 3.018.199 1.165 1.009 2.354 1.664 3.368.754 1.178 2.298 1.299 3.351 2.325.378.369.827.795 1.153 1.196.276.344 1.294 1.347 1.359 1.708.05.313-.522 1.584-.667 1.928-.313.73-.687.924-.257 1.804.516 1.04 1.992 1.692 2.843 2.433 1.142.992 2.859.625 4.258.409 1.458-.225 2.764-.441 3.899-1.605.59-.604.842-1.227 1.831-.891.739.246 1.012.774 1.802.891.772.11 1.389.063 2.081.327.776.299.951.609 1.823.258 1.025-.411 2.845-.849 3.558-1.873.227-.321.187-.722.338-1.03.111-.219.492-.554.558-.723.152-.392.213-1.603.052-2.149-.097-.333-.467-.471-.558-.704-.119-.319-.012-.724-.134-1.045-.29-.801-1.01-1.552-.488-1.906.084-.049 1.155-.015 1.763-.373 1.132-.667 1.48-2.045 2.389-2.88.549-.502.993-.7 1.258-1.466.22-.64.413-1.343.612-2.021.456-1.559-.102-2.376-1.426-3.087-.61-.325-.974-.894-1.574-1.155-.523-.226-1.445-.418-1.977-.51-.753-.129-1.417-.108-2.129-.286-.633-.157-1.292-.17-1.98-.067-.726.107-1.295.449-1.513-.525-.137-.623.122-1.354 0-2.001-.188-.988-.767-2.697-1.746-3.162-.575-.274-1.233-.081-1.855-.427-.548-.31-.82-.45-1.354-.45a3.503 3.503 0 0 0-.356.015"/><path id="f" d="M18.949 23.791c-1.12.292-3.13.023-4.11.694-.864.589-1.676 1.417-2.089 2.36-1.021 1.113-2.124 2.093-2.741 2.958-.686.959-.81 2.477-.372 3.356 1.23 2.449 4.314 3.221 6.665 2.478 2.282-.513 5.081-1.164 5.397-4.201.159-1.503.58-3.052.08-4.442-.368-1.017-.458-3.277-2.234-3.277a2.557 2.557 0 0 0-.596.074"/><path id="g" d="M26.444 25.699a.032.032 0 0 0 .028-.012c.005-.007.006-.015.003-.015-.004 0-.015.007-.031.027m-1.183-11.132c-.177.191-.36.376-.453.533-.25.413-.371.638-.846.905-.326.182-.576.264-.813.535-.229.261-.403.54-.603.822-.388.546-1.137.677-1.809.688-.163.006-.321-.003-.474-.009-.925.603-1.9.949-2.791.729-.547-.135-1.235-1.111-1.752-1.036-.52.079.298.347-.114.792-.46.491-1.015.086-1.405-.319-.265-.276-.454-.555-.482-.547-.111.037.019.323.007.46-.021.287-.283.461-.313.757-.029.289.011.452.047.605.044.175.129.4.119.704-.013.511-.01.345-.031.857-.043 1.013-.464 1.437-.713 2.436-.269 1.093.862 1.669-.498 3.709-.454.679-2.488 1.627-2.361 2.43.574-.1.896-.74 1.305-1.158.979-.983 3.647-2.021 5.214-2.094 1.636-.076.069 1.738.526 2.094.443.344-.448 1.298.056 1.059.523-.252 1.234-2.627 1.52-3.21.188-.382 2.775-6.38 2.844 2.671.007.86.518 1.277.277 2.107-.114.391-1.633 2.568.865 2.323.333-1.889-1.093-3.228-.355-4.149.391-.491 1.771-.579 1.746-1.218-.057-1.401.593-1.369 1.19-1.338.368.021.717.04.872-.276.24-.489.357-.669.408-.73-.022-.003-.057-.045-.07-.21-.063-.62.492-.628.231-1.216.597.142.757-.447 1.25-.58.333-.092 1.011-.053 1.356.001.821.132 1.226 1.468 1.396 1.387.19-.289-.27-1.001-.701-1.394-.347-.32-.762-.967-1.043-1.337-.419-.544-.148-1.284-.761-1.597-.188-.097-.338-.064-.52-.03-.273.051-.608.1-1.23-.278-3.243 2.299-.5-1.167-.695-2.017-.395-1.118-1.272-1.444-.351-3.852.004-.012-.003-.022-.016-.022-.009 0-.018.006-.029.013"/></defs><path fill="#a02031" d="M25.428 163.37c2.158 9.263 1.812 24.563-4.397 32.234-8.933 11.02-17.484-1.063-19.695-10.19-2.385-9.83-2.083-26.942 5.124-34.785 2.487-3.113 6.485-5.082 10.126-2.53 5.67 3.927 6.878 8.928 8.842 15.272"/><path fill="#fff" d="M17.11 175.39c.388 1.041-.589 2.773 1.18 3.113 1.15.965 3.847.604 3.62 2.427-2.179-.124-3.84-2.141-6.37-1.597-1.317.254-2.466 1.025-3.755 1.42-.173-.206-.405-.357-.297-.637 1.284-1.01 3.156-1.01 4.343-2.18l.08-3.204c.6-.75 1.398-.103 1.198.658M19.176 182.543c1.24 1.187.383 2.752.577 4.289-.092 3.388.038 6.242.836 9.484-.022.399-.167.89-.588 1.04-.415.033-.464-.382-.69-.587-.276-4.375-.713-8.707-.831-13.163-.308-1.144-1.964-.4-2.708-.572-.427.022-.793.27-1.128.572-.254 4.397 0 8.971-.75 13.53-.135.15-.34.2-.55.172l-.237-.334c.388-4.51.307-9.495.652-13.783.534-.69 1.565-1.338 2.617-1.236.933-.091 1.985.221 2.8.588M9.59 189.945c.113 1.057-.087 1.882.026 2.767.157 1.041-.286 2.05-.41 3.086-.032.512-.426.933-.205 1.483h.561c.874-.442.74-1.542.836-2.433.249-1.035.087-1.828.21-2.692.125-1.974.152-3.657.168-5.448.081-.502 0-.728.032-1.128.357-1.65.049-3.576-.14-5.265-.62-1.667-2.508-1.764-3.916-2.158-.4-.237-.534-.755-.561-1.132.329-.766 1.24-1.015 2.012-1.074.27-.14.458-.113.712-.194.475-.173.739-.264 1.165-.297.345-.07.432-.377.432-.685-.653-.955-1.381.119-2.26.092-1.004.447-2.86.356-3.065 1.958-.205.669.19 1.279.561 1.732.28.264.605.496 1.317.555.927.324 2.228.378 2.638 1.37-.033.48.097 1.527.107 1.84.054.405.054.734 0 1.144.238.615-.01 1.3-.032 1.953-.253.54-1.111.259-1.613.286-.442-.238-.998-.044-1.349-.373-.22-.534-.194-1.246-.134-1.834.895-.442 1.613-.318 2.492-.755.038-.038.07-.113.102-.162.022-.113.06-.227 0-.324-.054-.08-.108-.118-.15-.215-.567-.556-.718.054-1.511.086-.162 0-.291.021-.453.01-1.166.06-.367-1.472-.783-2.07-.183-.114-.34-.594-.68-.432-.754.566.087 1.553-.118 2.33.205 2.147.167 4.5-.243 6.765.265.998-.232 2.325-.188 3.399-.162.453-.049.987-.227 1.43.065.544-.47 1.315.065 1.693.215-.205.48-.324.642-.626.253-1.51.566-2.967.728-4.52.027-.281.221-.513.56-.41.735.064.929.496 1.609.507.976-.227.34-.95.156-1.042-.825-.059-.712-.388-1.489-.512-.232-.054-.744.113-.663-.259 0-.529.07-1.252.231-1.705.653-.188 1.338.011 2.05.011.26.027.864.103.966.378.097.782-.07 2.077-.189 2.87M22.326 163.64l-1.047-.188c-.399-.33-.793-.497-1.257-.783-.906-.674-2.276-1.105-3.247-2.071-.906.049-1.306.89-2.153 1.386-.097.097-.307.216-.415.011.34-.728 1.041-1.052 1.575-1.58.335-.222.745-.378 1.025-.67.631.233.863.659 1.344.902.782.36 1.09.77 1.753 1.035.68.432 1.122.648 1.72.896.346.253 1.258.13.853.987z"/><path fill="#fff" d="M20.573 153.04c-.06.388-.561.61-1.058.615-.647-.005-.782.189-1.3.496-.145.157-.291.416-.205.648-.01.47.793.604 1.311.793.173.01.28.172.27.367-.216.15-.496-.011-.788.048-.804.184-1.694-.173-2.481-.048-.324.113-.394 0-.863.156-.216.049-.34.049-.524.124-.507.178-1.43 0-1.478.55-.113.529-.226 1.139-.259 1.732-.054.264-.021.593-.172.852 0 .831.172 2.137.377 3.28-.027.254-.064.507 0 .75.47.518 1.344.162 1.678.27.685 0 1.057.065 1.597.021.507.098 1.057.022 1.597.152.08-.054.275.124.356.194 0 .248-.28.259-.507.286a4.44 4.44 0 0 1-1.446-.081c-1.225-.043-2.169.183-3.588.124-.663.043-.981.065-1.79.043-.135-.049-.75.049-.912.049-.734-.027-.81-.027-1.543-.135-.194-.119-.507.091-.604-.216-.114-.26.22-.232.34-.27.717 0 1.375.01 2.012.01.884-.01 1.3-.031 1.85-.285.103-.248.07-.453.086-.647.054-.934-.215-1.878-.113-3.01.097-.605.005-1.414.113-2.013.054-.512.054-1.79.448-2.077l1.753-.447c.648.027 1.16-.081 1.867-.044.372-.075.771-.242.955-.63.032-.357-.232-.707-.561-.767-.443-.092-.394-.038-.939-.113-.297-.086-.653 0-.868-.378-.664-.82-.826-1.92-.642-2.961.091-.2.226-.448.49-.249.335.389.081.793.033 1.241-.108.987.496 1.419.852 1.656.416.157.502.087 1.004.049.453-.367.22-.944.399-1.435-.07-.777.124-1.133.41-1.818.313 0 .313.334.426.561l-.022.34c.07.636-.086 1.397.216 2.18.21.285.238.215.567.215.464-.194.879-.41.96-.928.189-.48-.227-1.505.545-1.553.205-.044.194.048.232.156z"/><path fill="#fff" d="M20.546 159.81c-.227 0-.507-.054-.707-.21-.545-.674-2.034-.998-2.579-1.446-.755-.318-.825.027-1.327.286-.28.35-.706.513-1.052.701-.286.27-.34.362-.636.421-.113-.06-.275-.183-.151-.275.329-.334.49-.529.809-.766.62-.34 1.246-.836 1.813-1.23.577.291 1.834.685 2.46.955.49.507 1.256.685 1.666 1.251.027.205-.145.286-.296.313M17.681 169.456c.227.798.043 2.325-.34 2.632-.34.48-.69.486-1.068.589-1.095.124-.804.167-1.877.285l-1.683.151c-1.08.027-1.856.103-3.01.076-.535.076-1.117-.162-1.646-.307-.13-.19-.383-.19-.383-.524 0-.318.658-.178 1.16-.167 1.014.086 2.023.173 3.037.151 1.074-.124 1.435-.07 2.751-.124.292-.027.847-.167 1.036-.27.977-.356.853-.318 1.106-1.219.14-.83.01-1.047-.895-1.278-1.063-.276-1.818-.065-2.482-.756-.475-.647.092-1.472-.895-1.931-.853.119-1.446.167-2.38.13-.48 0-.83.059-1.31.037-.27-.06-.637-.038-1.08-.048-.29 0-.34-.076-.663-.076-.156-.178-.47-.361-.216-.615.378-.167.696.033 1.025-.13.864-.026 1.586 0 2.498-.037.345.038.707.038.982.048.81-.08 1.564.07 2.498-.01.696.01 1.251.086 1.812.048.54.038.853.114 1.155.049.63-.13 1.122.038 1.623-.011.788.08 1.063-.189 1.673-.038.237.038.323.33.448.394-.114.146-.13.308-.324.345-.561.27-1.084.081-1.867.081-.566.108-1.062.033-1.801.124-.427-.097-.945-.118-1.522-.156-.426-.01-.75.027-1.116.108-.027.47.08.89.469 1.23.404.296 1.284.286 1.877.377.497.195 1.192.254 1.408.842M12.89 150.855c-.102.836.141 2.358-.76 3.14-.712.2-1.661-.13-2.136.599-.42.604.065 1.197-.097 1.85.216.798 1.02 1.084 1.45 1.726.33.335.432.513.535.874-.162.108-.35.21-.496.103l-.178-.151-.302-.346c-.254-.194-.561-.641-.912-.717-1.22-.027-1.845 1.117-2.79 1.715-.307.26-.62.464-.922.675-.226.226-.393.345-.604.512-.399.34-.701.529-1.176.67l-.113-.2c.097-.205.534-.464.825-.658.664-.756 1.327-1.613 2.271-2.056.632-.604 1.597-1.041 1.915-1.942.011-.313-.172-.577-.334-.771-.076-.524.221-1.112-.383-1.392-.723.06-1.532-.416-1.726-.577-.858-1.02-1.08-2.46-.545-3.744l.113-.027c.572.145.378.76.389 1.235.048.626.167 1.376.663 1.802.178.253.486.458.777.55.259-.032.561-.216.572-.458.35-.88-.194-1.716.205-2.611-.016-.232-.054-.648.275-.766l.604.118c.032.583-.216 1.068-.156 1.689.032.523-.114 1.143.302 1.467.2.205.49.297.75.178.717-.038 1.095-.701 1.213-1.16-.027-.733.173-1.354.114-1.807l.135-.329c.329.151.49.437.523.81M11.38 162.33c-.356.032-.318-.443-.56-.61-.362-.334-.734-.998-1.376-.75-.27.178-.534.4-.88.588-.922 1.106-1.882 1.586-2.843 2.557-.232.076-.345-.075-.415-.259.27-.383.717-.674 1.095-.955.28-.194.491-.566.82-.787.227-.26.345-.432.561-.599.54-.561.987-.734 1.451-1.235.21-.184.556-.34.799-.14.22.544.863.814 1.289 1.235.178.253.637.739.06.955"/><path fill="#19294f" d="m50.897 23.616-.11.073c-.937-.561-2.413-.99-3.818-.99-2.844 0-5.07 2-5.07 5.012 0 3.164 2.602 4.94 5.258 4.94 1.743 0 3.442-.617 4.342-1.497l.131.093-.543 2.583c-.954.56-2.677.86-4.023.86-4.414 0-8.1-2.657-8.1-6.998 0-3.968 3.029-7.109 8.025-7.109 1.667 0 3.256.39 4.414.898zm15.158 10.757a31.62 31.62 0 0 1-.096-2.264v-8.944c0-.675.041-1.534.096-2.265h-2.918c.054.731.093 1.589.093 2.265v3.293h-6.981v-3.293c0-.675.04-1.534.097-2.265h-2.919c.056.731.094 1.589.094 2.265v8.944c0 .729-.038 1.516-.094 2.264h2.919a30.502 30.502 0 0 1-.097-2.264v-3.611h6.981v3.611c0 .729-.039 1.516-.093 2.264zm6.284 0a32.803 32.803 0 0 1-.092-2.264v-8.944c0-.675.039-1.534.092-2.265h-2.918c.057.731.095 1.589.095 2.265v8.944c0 .729-.038 1.516-.095 2.264zM88.13 20.9a33.42 33.42 0 0 0-.091 2.303v11.319h-.432l-9.448-9.653v7.24c0 .729.037 1.516.094 2.264h-2.489c.057-.748.094-1.535.094-2.264V22.51l-1.423-1.442V20.9h3.463l7.839 8.065v-5.8c0-.729-.038-1.516-.092-2.265zm16.972 13.473c-.581-.862-1.085-1.78-1.516-2.563l-6.342-11.603h-.636l-7.541 14.166h3.013c.242-.693.523-1.367.747-1.816l.825-1.682h6.473l.879 1.738c.264.525.581 1.142.731 1.76zm-8.326-10.048h.093l2.337 4.696H94.55Zm28.814 10.048c-.582-.862-1.087-1.78-1.517-2.563l-6.344-11.603h-.635l-7.539 14.166h3.012c.245-.693.523-1.367.749-1.816l.825-1.682h6.473l.88 1.738c.26.525.579 1.142.729 1.76zm-8.325-10.048h.091l2.339 4.696h-4.657zm12.216 10.048a29.939 29.939 0 0 1-.092-2.264v-8.944c0-.675.035-1.534.092-2.265h-2.918a31.9 31.9 0 0 1 .093 2.265v8.944c0 .729-.037 1.516-.093 2.264zm3.426 0c.056-.748.091-1.535.091-2.264v-8.944c0-.675-.036-1.534-.091-2.265h5.254c2.997 0 4.978 1.554 4.978 3.65s-1.571 3.349-3.461 3.702l3.407 3.819a17.941 17.941 0 0 0 2.15 2.134v.168h-3.536l-5.968-6.999v4.735c0 .729.037 1.516.094 2.264zm2.824-7.334h1.572c1.814 0 2.919-.73 2.919-2.34 0-1.405-1.067-2.096-2.939-2.096h-1.552zm18.69 7.334.563-2.414-.15-.076c-.711.394-1.647.638-2.657.638h-3.238v-9.355c0-.675.038-1.534.096-2.265h-2.917c.053.731.09 1.589.09 2.265v8.944c0 .729-.037 1.516-.09 2.264h8.303zm5.034 0a31.594 31.594 0 0 1-.092-2.264v-8.944c0-.675.037-1.534.092-2.265h-2.916c.053.731.091 1.589.091 2.265v8.944c0 .729-.038 1.516-.091 2.264zM175.229 20.9c-.059.692-.096 1.61-.096 2.303v11.319h-.43l-9.448-9.653v7.24c0 .729.036 1.516.092 2.264h-2.488c.058-.748.092-1.535.092-2.264V22.51l-1.42-1.442V20.9h3.461l7.838 8.065v-5.8c0-.729-.037-1.516-.094-2.265zm12.254 13.473.58-2.414-.149-.076c-.711.413-1.63.638-2.675.638h-4.417v-4.34h3.519c.858 0 1.626.072 2.377.262l.485-2.04h-6.381v-3.667h3.778c.975 0 1.871.092 2.695.336l.523-2.17h-9.823c.058.731.093 1.589.093 2.265v8.944c0 .729-.035 1.516-.093 2.264h9.488zm11.3-10.497c-.897-.805-2.506-1.347-3.911-1.347-1.87 0-2.86.616-2.86 1.517 0 1.025 1.308 1.551 3.706 2.582 3.458 1.476 4.282 2.357 4.282 4.152 0 2.3-2.267 3.912-5.649 3.912-1.907 0-3.894-.694-5.07-1.461l.504-2.451h.168c.898 1.161 2.789 1.928 4.416 1.928 1.759 0 2.993-.654 2.993-1.704 0-.989-.99-1.422-3.688-2.542-3.123-1.293-4.338-2.321-4.338-4.306 0-2.021 1.777-3.572 5.556-3.572 1.497 0 3.442.484 4.547 1.104l-.507 2.188z" style="fill:#19294f;fill-opacity:1" transform="matrix(5.39462 0 0 5.39462 -.002 0)"/><path fill="#c95665" fill-rule="evenodd" d="M115.103 35.308c2.093.038 3.269.863 4.547 1.537 2.493 1.317 4.106 2.428 7.418 2.466 1.759.005 3.55.21 5.173.998 5.73 2.713 8.972 12.402 9.975 17.753.356 1.856.173 3.771 0 5.622-.178 1.855-.35 3.603 0 5.151.626 2.8 1.71 2.811 2.417 2.811h.005c.707 0 1.597-.194 2.509-.383.674-.14 1.338-.302 2.077-.4a32.917 32.917 0 0 1 4.742-.35c2.195 0 4.315.248 6.327.75 2.142.523 4.214.723 6.388.922 1.613.14 3.258.297 4.995.605 1.71.296 7.58 1.354 10.903 2.816 1.872.793 3.344 2.093 4.758 3.36 1.23 1.106 2.4 2.142 3.825 2.903 8.253 4.418 10.665 9.58 8.22 17.905-.253.836-.49 1.715-.744 2.578-.798 2.784-1.64 5.708-2.562 8.373-1.176 3.425-2.978 4.898-5.092 6.635-.62.518-1.274 1.063-1.953 1.667-1.98 1.84-3.437 4.143-4.969 6.603-2.141 3.372-4.375 6.884-8.108 9.09-3.08 1.818-5.524 1.942-8.642 2.093-.189.01-.383.016-.567.016-1.38.68.108 3.604 1.128 5.39.545.965 1.149 2.028 1.694 3.49.361 1.02.377 2.125.41 3.156.027.933.032 1.796.297 2.438.107.302.539.696.965 1.063.745.663 1.667 1.516 2.056 2.816.944 3.183.63 9.964-.297 12.375-.243.658-.88 1.349-1.619 2.19-.566.642-1.203 1.365-1.435 1.802-.285.566-.426 1.3-.571 2.055-.227 1.139-.486 2.46-1.327 3.653-3.243 4.677-10.245 7.137-15.882 9.111-1.381.475-2.698.96-3.814 1.392-1.543.626-2.795.928-3.944.928-1.613 0-2.848-.594-4.278-1.268-.69-.34-1.445-.685-2.368-1.047-2.373-.906-4.58-1.1-7.105-1.316a58.107 58.107 0 0 1-3.894-.394c-2.67-.377-4.349-1.58-5.967-2.692a9.911 9.911 0 0 1-.69-.474h-.265c-2.411 0-4.18-.518-5.335-1.565-2.627 3.766-6.608 6.636-12.386 8.993-3.879 2.147-7.941 3.075-11.431 3.712-.982.302-1.764.54-2.471.76-3.156 1.014-6.522 1.495-10.007 1.495-1.257 0-2.557-.076-3.809-.19-4.553 0-8.13-1.04-10.972-3.134a28.052 28.052 0 0 1-7.979-5.766c-3.188-2.207-6.733-4.845-8.47-8.378-2.06-4.192-1.046-6.085.27-8.513a28.965 28.965 0 0 0 1.392-2.886c2.309-5.287 3.059-7.633 3.21-8.6-2.617-.803-4.936-3.193-7.046-7.25-1.149-2.222-2.362-4.202-3.14-5.124a26.883 26.883 0 0 0-1.86-2.018c-.497-.475-1.155-1.03-1.344-1.22-2.4-2.362-5.346-3.808-8.183-5.21-2.579-1.273-5.217-2.584-7.38-4.553-1.473-1.274-2.72-2.903-3.89-5.088-3.398-5.254-6.738-10.827-7.698-16.361-.955-5.433.405-8.616 2.12-11.912.524-1.16 1.1-2.276 1.764-3.328.33-.61.588-1.17.826-1.7.399-.841.652-1.494.868-2.098.545-1.446.96-2.595 2.74-4.515 2.202-2.358 3.993-3.528 6.383-4.71 2.616-1.295 5.583-2.2 7.919-2.422.172-.01 1.77-.248 2.384-.13.534.13 1.074.26 1.608.26.113 0 .216 0 .318-.022.567-.054 1.063-.286 1.613-.594.74-.393 1.597-.458 2.746-.458h.232c2.535.135 11.523 4.726 14.07 4.801 0 0 .636.049.922-.021.312-.07.636-.357.636-.357 1.16-.96 2.066-2.217 2.768-3.83.086-.13.124-.275.2-.42l.01-.017c.119-.291.232-.615.34-.9l.005-.011c.097-.324.21-.615.292-.96.517-1.705.868-3.599 1.213-5.406.103-.496.168-1.02.275-1.494l.108-.432.103-.56c.032-.098.092-.492.092-.492.043-.13.064-.291.107-.41l.022-.113c.016-.113.054-.237.076-.367l.043-.151c.038-.146.064-.28.108-.448l.027-.06c.021-.118.059-.269.091-.398l.054-.114c.038-.156.081-.296.119-.453v-.021c.054-.151.092-.28.151-.416l.022-.14c.059-.135.102-.286.145-.437l.011-.016c.049-.124.113-.275.156-.41l.038-.124c.049-.14.124-.291.189-.421v-.027c.06-.124.113-.259.167-.394l.06-.124c.07-.118.124-.275.188-.388.923-1.84 1.506-4.046 2.126-6.398 1.262-4.72 2.552-9.56 6.732-12.117 1.84-1.122 3.766-1.289 5.616-1.456 1.58-.124 3.07-.291 4.44-.971 1.133-.572 2.104-1.387 3.123-2.239 1.42-1.198 2.914-2.45 4.98-3.086.22-.059.42-.113.63-.172l.157-.038c.19-.054.41-.103.594-.135l.113-.032c.183-.043.356-.07.534-.114l.157-.016c.188-.038.377-.064.566-.113l.178-.016c.146-.022.291-.049.448-.054l.172-.027c.168-.022.362-.033.534-.054.054 0 .227-.005.227-.005.113-.027.248-.027.378-.049h.323c.114-.016.221-.016.346-.027h1.257c.658.01 1.375.043 2.168.113h.038c.275.022.556.049.847.07l.13.011c.285.033.56.054.84.087.675.064 1.301.091 1.91.091 1.813 0 3.243-.291 5.206-.706 1.619-.351 3.572-.702 4.694-.68" clip-rule="evenodd"/><path d="M2.059 6.759h35.174v29.444H2.059Z" clip-path="url(#h)" style="fill:url(#i)" transform="matrix(5.39462 0 0 5.39462 -.002 0)"/><path d="M11.528 6.732h14.34v13.36h-14.34z" clip-path="url(#j)" style="fill:url(#k)" transform="matrix(5.39462 0 0 5.39462 -.002 0)"/><path d="M12.483 7.073h14.058v15.006H12.483Z" clip-path="url(#l)" style="fill:url(#m)" transform="matrix(5.39462 0 0 5.39462 -.002 0)"/><path d="M9.199 23.716h13.08V36.38H9.199Z" clip-path="url(#n)" style="fill:url(#o)" transform="matrix(5.39462 0 0 5.39462 -.002 0)"/><path d="M2.262 15.734h12.29v14.912H2.262Z" clip-path="url(#p)" style="fill:url(#q)" transform="matrix(5.39462 0 0 5.39462 -.002 0)"/><path d="M20.454 13.645h15.925v13.928H20.454Z" clip-path="url(#r)" style="fill:url(#s)" transform="matrix(5.39462 0 0 5.39462 -.002 0)"/><path d="M9.852 14.554h20.945v19.101H9.852Z" clip-path="url(#t)" style="fill:url(#u)" transform="matrix(5.39462 0 0 5.39462 -.002 0)"/><path fill="#fff" fill-rule="evenodd" d="M80.917 141c-1.829-1.322 0-5.962 2.185-8.287 2.168-2.32 5.508-6.101 4.634-6.538-.869-.443-4.634.437-5.805 0-1.154-.443 6.528-3.485 7.396-3.917.88-.442-5.508-2.184-7.833-2.47-2.314-.286-7.11.431-6.678-.588.447-1.004 3.204-2.315 3.781-2.897.578-.578-3.63-2.757-3.922-3.782-.296-1.014.874-2.034 5.217-1.014 4.359 1.014 7.99.577 9.878 1.014 1.872.442 2.896.874 3.62 1.311.733.442 1.25-1.144 1.85-.9.604.242 1.974 1.132 2.098.242.119-.901-.604-2.52-1.796-3.598-1.198-1.069-3.118-3.232-3.35-3.998-.238-.777-1.192-2.632-.114-3.059 1.08-.415 2.023-.048 2.638-.296.594-.243 1.673-1.861 3.216-1.187 1.559.653 2.276 1.251 2.756 1.624.475.345 1.376.577 2.088.345.723-.243 1.92-1.683 3.29-.847 1.376.847 3.836 2.81 6.048 2.336 2.207-.475 3.469-1.554 4.127-2.875.658-1.311 2.514-5.444 3.29-6.22.772-.783 2.752-2.331 2.455-1.738-.291.594-2.27 4.969-2.152 7.18.118 2.218-.35 2.752.356 3.297.723.534 1.624.356 2.39 0 .782-.356 2.044-1.252 2.217-.712.183.518-4.424 3.636-5.794 4.963-1.386 1.305-2.703 4.003-2.034 5.076.648 1.079 3.286.594 4.602.594 1.327 0 4.127.188 3.776.841-.356.647-5.087 3.825-5.087 4.364 0 .545 2.86 1.56 4.5 1.613 1.607.07 5.431.67 6.931 1.015 1.49.366 2.74.307 3.043 1.138.296.83.777 1.559.237 1.613-.54.07-3.765-.416-4.844-.831-1.08-.426-6.636-1.678-7.893-1.613-1.257.06-4.957-.06-5.61 1.187-.669 1.257 2.082 2.104 2.676 2.643.61.545 2.827 2.87 1.446 3.113-1.376.243-2.514-.788-3.043-.955-.534-.183-2.697-1.678-3.242-2.104-.534-.41-2.87-2.924-4.003-2.81-1.133.113-3.48.544-4.79 1.375-1.322.847-2.746 2.46-3.534 3.356-.771.895-3.949 2.934-5.26 4.013-1.316 1.063-8.561 6.814-9.866 7.78-1.338.96-4.591 2.265-6.091 1.202" clip-rule="evenodd"/><path fill="#a02031" fill-rule="evenodd" d="M101.821 98.09c-.523-.787-.324-2.654.113-3.814.383-1.014 3.485-6.7 6.695-5.61 1.306.437 2.153.982 2.53 2.363.642 2.282.729 5.75-1.04 7.498-2.515 2.536-6.868 1.694-8.298-.437M86.781 105.001c.9-.162 2.093-1.273 2.293-2.169.286-1.197 2.66-1.305 2.762-1.77.118-.485-2.433-6.742-3.814-7.303-1.678-.702-2.164.442-3.663.312-1.155-.107-2.18-.56-2.876.696-1.068 1.932-3.048 4.424-1.472 6.539 1.597 2.12 3.895 4.25 6.77 3.695M122.704 110.018c-.426.475-1.365.842-1.958.21 1.904-2.27 3.479-3.112 5.81-4.86.825-.901.156-4.699.593-5.95.442-1.263 4.343-3.939 6.047-3.038.896.464 1.721.734 2.228 1.51.95 1.414.89 3.842.923 4.942.054 1.56-.793 2.665-1.246 4.16-.432 1.43-3.01 1.208-4.181 1.321-1.548.14-3.021-1.04-4.483-.14-.815.49-3.07 1.106-3.733 1.845M105.274 115.353c.501-.96-.027-2.336.124-3.344.124-.799.404-2.034-.464-2.53-.41 1.882-.718 4.035-.016 5.858.086.232.334.032.356.016M69.885 120.462c2.023-2.93 4.289-3.933 6.954-4.434.048-.362-.723-.632-1.015-.632-1.823-.372-3.22-1.462-4.375-2.859-2.26-2.735-3.582-4.947-7.304-3.803-3.938 1.203-4.094 7.682-2.983 10.827 1.31 3.782 6.425 4.235 8.723.9M147.8 115.601c4.062-1.537 7.342.47 5.346 3.841-1.02 1.727-.686 3.733-1.85 5.47-.902 1.382-3.151 2.142-4.834 1.543-1.532-.54-3.674-1.489-4.748-2.616-1.251-1.29-1.607-2.325-3.652-2.854-3.307-.863-6.916-.032-10.136-1.257 3.679-1.86 7.887.162 11.744-.102 1.667-.119 2.837-3.064 8.13-4.025M127.802 119.626c-1.015-.545-2.153-.577-2.897-.103.696.162 2.239.383 2.897.103M77.993 131.391c-3.684-4.39-11.501 3.982-12.068 4.527-.555.571-2.033 1.656-2.195 2.244-.459 1.737 3.571 4.067 4.833 4.785 1.651.97 3.075 3.43 5.341 1.704 2.228-1.666 2.438-3.28 3.021-5.885.523-2.298 1.473-4.672 3.253-6.306 1.77-1.646 3.938-2.876 5.41-4.845-3.565-.28-5.005 2.633-7.595 3.776M133.067 112.327c-.701-2.827-5.702.14-6.943-.119 1.419.356 3.485.265 5.362.545.556.108 1.705.178 1.58-.426M111.58 128.565c1.419.777 1.899 2.73 3.35 3.598 1.24.723 3.043 1.656 4.262 2.59.647.501 1.37 2.858.275 3.382-1.618.793-2.206-2.32-3.01.291-.826 2.595-3.981 3.82-4.596 6.598-.421 1.936-1.76 4.58-.53 6.44.379.589.999.848 1.652.934 1.5.189 1.71.086 2.988.901 1.586 1.014 2.897 1.451 4.618.674 1.683-.776 3.021-1.953 3.393-3.846-.205-2.045-.933-4.046-.879-6.123.054-2.077.993-3.312-.092-5.378-.857-1.657-1.618-2.52-3.08-3.63-1.117-.853-1.505-2.429-2.32-3.572-1.343-1.883-3.738-4.062-4.585-4.974-.863-.917-1.797-1.51-3.215-1.5-1.435 0-3.507 1.565-4.526 2.805-1.322 1.587-3.14 2.482-4.527 3.804-1.494 1.445-1.165 3.646-1.93 5.448-.637 1.532-1.873 3.34-2.024 5.028 1.025-.572 1.737-2.174 2.358-3.113.464-.696.917-1.408 1.467-2.039.55-.696 1.403-.717 2.028-1.3 1.797-1.72 1.986-3.895 3.156-5.837 1.009-1.63 4.305-1.931 5.767-1.181M145.372 146.06c-.113-1.101-.486-2.212-.232-3.318.324-1.403-.135-2.514-.798-3.83-.777-1.484-3.135-4.99-5.233-4.036-.723.324-1.44 1.214-2.325.707-1.058-.61-1.392-1.548-2.698-2.007-1.197-.404-2.465-.593-3.684-.917-.804-.2-1.527-.415-2.546-.507.793 1.694 3.598 2.746 4.968 3.89 3 2.481 1.565 5.319 1.37 8.496-.059.987-.356 2.336.308 3.285.658.95 3.145 1.128 3.733 1.479.329.21 3.377 1.262 4.693.528 1.306-.728 2.546-2.924 2.444-3.77M112.05 175.06c.906-.182 2.114.767 4.088 1.522 1.97.76 3.566 1.203 5.152 1.29 1.592.07 4.548 1.893 5.077 2.945.528 1.068.841 3.949-.076 5.616-.912 1.667-2.503 3.873-1.667 7.498.831 3.642 2.347 5.007-.307 4.775-2.644-.227-4.618-1.133-6.14-1.576-1.515-.453-3.71-.706-5.378-2.735-1.667-2.06-2.724-1.683-5.46-3.344-2.729-1.651-4.401-5.147-3.036-6.657 1.37-1.51 5.535-5.239 6.063-6.075.534-.83 1.295-3.177 1.683-3.258M166.136 153.617c0-.847 1.969-2.141 2.098-2.692.12-.544.184-3.776-.172-5.146-.362-1.376-.594-2.875.41-3.534 1.02-.658 3.84-1.559 5.508-.836 1.683.723 3.042 1.387 4.607 1.975 1.548.604 5.62 2.708 6.333 4.186.723 1.505 1.683 3.123.599 4.715-1.068 1.634-1.063 2.762-1.91 3.485-.766.674-2.88 2.212-4.014 3.652-1.143 1.446-1.974 4.488-3.35 5.141-1.364.664-4.126 1.51-4.914.545-.772-.96-1.187-3.048-1.009-3.884.184-.836 2.093-2.395 1.618-3.771-.48-1.376-1.866-1.56-3.355-2.099-1.494-.54-2.45-.895-2.45-1.737M38.823 165.815c-.734-.799-1.462-1.462-1.1-2.25.366-.81 1.283-2.509 1.461-3.852.178-1.332.124-4.515 0-5.427-.113-.917.491-2.314.745-3.166.232-.864-.065-2.45 1.52-2.994 1.587-.561 3.227-.373 4.63-.13 1.413.243 4.218.982 5 2.503.804 1.527 1.284 3.302 2.207 3.9.911.61 3.717 1.84 3.781 2.272.06.41-.55.965-1.542 2.68-.96 1.7-.907 6.102-1.025 6.954-.12.853-.06 4.09-1.16 4.812-1.106.745-2.87 0-4.456-.787-1.576-.804-3.857-1.667-4.758-2.498-.804-.744-.788-1.705-1.344-1.953-.55-.248-3.226.734-3.96-.064M98.131 149.895c.637.674.847 2.789.826 3.41-.065 1.262-.168 2.993-.815 3.819-.631.814-2.832 2.001-3.48 2.244-.663.221-2.654.912-3.754-.07-.486-.416-2.158-1.57-2.681-2.6-.529-1.052-1.112-4.974.89-7.202.955-1.068 2.681-1.17 3.792-2.093.998-.842 1.92-1.786 3-2.509.08 1.085-.783 2.412-.033 3.399.529.69 1.63.928 2.255 1.602M123.033 125.134c-1.392-.184-2.007-.653-3.501-.61.874 1.284 3.09 1.079 4.483 1.597.647.237 1.09.696 1.559.966 1.505.868 4.315 1.882 4.698 2.362.378.459 3.13 1.657 4.607 1.069.637-.222 1.748-.475 1.468-1.274-1.187-2.422-4.575-1.553-6.382-2.708-.604-.35-.599-.82-1.473-.976-.863-.167-1.888-.054-2.53-.318-.631-.276-1.958.005-2.93-.108M106.687 103.404s.022.372-.21 1.408c-.205 1.025-.675 3.27.259 5.05 0 0 .518-.583.377-2.185-.118-1.613.14-1.797.151-2.315.011-.55-.577-1.958-.577-1.958" clip-rule="evenodd"/><path fill="#a02031" fill-rule="evenodd" d="M100.537 122.334c.615.755-.232 1.947-.717 2.616-.556.723-1.457 1.139-3.242 3.027-1.797 1.91-3.701 4.073-4.197 4.72-.47.658-1.624 2.406-2.056 2.018-.42-.383.874-2.827 1.198-3.367.334-.54 2.228-3.14 2.88-3.528.659-.377 4.03-3.199 3.912-3.582-.103-.377-1.247-.28-1.791-.167-.534.113-3.086 1.03-3.809 1.203-.696.162-1.57-.28-.54-1.144 1.03-.868 1.306-1.03 1.846-1.143.544-.114 2.06-.157 2.384-.48.329-.324.378-1.36.06-1.576-.319-.22-.81-.064-1.247-.064-.437 0-5.6-.912-6.463-1.08-.879-.167-5.81-1.461-6.678-1.629-.874-.167-.977-.771.437-.771 1.413 0 3.97.49 4.893.49.917 0 2.007-.156 2.983-.107.971.065 3.738.55 4.542.28.826-.28 1.975-.77 2.136-1.305.162-.545.276-1.198-.215-1.683-.486-.496-2.676-1.964-3.27-3.102-.577-1.138-1.192-2.277-1.78-2.611-.598-.324-1.629-.49-2.06-1.095-.437-.588-.659-2.223.102-1.899.772.334 2.838 1.424 3.161 1.861.324.432.869 1.521 1.516 2.271.658.756 2.066 2.061 2.714 2.45.652.377 1.963 1.348 2.341 2.163 2.06.118 2.492 0 3.852.07 1.354.054 3.469.259 3.905.48.437.227 1.9.928 2.39.432.486-.486 1.845-3.356 2.385-4.068.545-.712 3.042-3.792 3.539-4.618.48-.798 3.409-3.145 3.684-2.967.27.151.869.529-.226 1.51-1.074.966-4.165 4.014-4.613 4.77-.437.776-2.174 3.587-2.492 4.191-.324.594-1.24 1.24-.971 1.624.27.372 2.066.863 2.444 1.246.377.383 1.526 2.444.706 2.994-.809.54-1.796.038-2.503-.717-.707-.75-1.079-1.565-1.84-2.061-.765-.491-1.693-.755-3.096-1.24-1.419-.492-4.564-.605-5.432-.39-.874.227-2.611.826-2.65 1.797-.08.976.238 2.19 1.878 4.18" clip-rule="evenodd"/><path fill="#a02031" fill-rule="evenodd" d="M102.976 113.546c-.48 0-2.104-1.478-2.66-2.546-.556-1.1-1.678-3.156-2.06-3.647-.384-.486-.594-1.564-.988-1.893-.367-.33-2.11-2.396-1.624-2.665.497-.276 2.277 1.52 2.493 2.012.226.49 1.958 2.875 2.4 3.463.432.604 1.737 2.665 2.061 3.264.33.599.869 2.012.378 2.012" clip-rule="evenodd"/><path fill="#18234a" d="M86.304 0c-1.071.815-.088 2.514-.517 3.759-.687.254-1.348.423-2.115.423-.432-.085-.792-.755-1.221-.282-.34 2.317.006 4.918 1.551 6.672.183.042.351.039.517 0 .166-.041.311-.119.468-.189.317-.139.642-.277.989-.235.132 2.102.089 4.185.468 6.202l.235.28c1.5-1.928 1.083-4.5 1.551-6.812 1.118-.045 2.226-.575 3.381-.188l1.082-1.08c.059-.091.121-.152.141-.235.143-.58-.594-.976-.751-1.503.605-.812 1.606-1.332 1.644-2.397-.599-.687-1.359-1.379-2.254-1.549-.854.682-2.164.605-3.24.469l.141-2.162C87.858.614 87.121.125 86.304 0Zm3.054 4.229c.395-.002.791.047 1.175.047-.646 1.245-.986 2.917-2.443 3.477l.141-3.335a3.223 3.223 0 0 1 1.127-.189zm-3.853.657h.329l.094 3.476c-.346.222-.796.189-1.222.189l-.141-.235c.038-.145.038-.307.047-.47.068-1.139-.379-2.619.893-2.96zM110.125.328a1.222 1.222 0 0 0-.282.142c-.095.058-.2.157-.283.234-.49.46-.754 1.18-1.174 1.692l-1.645.141-.142-1.221c-.426-.69-1.275-.627-1.925-.799-.897.52-.093 1.658-.047 2.35-.603.295-1.498.152-1.926.705.041.429.266.829.518 1.08.556.382 1.275-.006 1.832-.14.945.728-.694.481-.609 1.126.259.856 1.281.376 1.925.425.087.247.124.634-.048.892-1.246.644-1.732-1.131-3.1-.658-.517.298-.144.83-.188 1.174l-.894.093c-.293.042-.375.404-.375.658.3.512.904.928 1.551.847.211.17.277.496.188.706-1.073.255-2.224.306-3.29.563-.087.383.106.644.235.987.125.345.516.787.987.657.792-.189 1.598-.412 2.397-.61.797-.198 1.585-.381 2.442-.424l.141.189c-.041.213.13.484-.047.61l-2.914.519c-.213.216-.039.441.048.61.48 1.5 1.925.275 2.866.751.132 1.283.135 2.555.563 3.711 1.502-.772 1.158-2.615 1.504-3.994.512-.105 1.017-.034 1.504.048.486.083.96.189 1.456.234.338-.304.881-.564.798-1.126-.518-1.582-2.376-.676-3.618-.848l-.189-.187c-.018-.128-.087-.26-.094-.377-.002-.058.024-.087.048-.142.022-.052.079-.098.141-.139a16.408 16.408 0 0 1 2.582-.048c.877.053 1.719.153 2.49.283l.659-.423c.257-.217.417-.646.33-.989-.337-.3-.649-.761-1.082-.799-.9.334-1.922.377-2.914.33v-.094c.109-.708.449-.787.893-.796.224-.006.481-.028.707-.049.225-.02.438-.073.611-.235.082-.151.161-.328.188-.517.014-.094.031-.196 0-.283a.472.472 0 0 0-.188-.233 2.584 2.584 0 0 1-.706-.235c-.661-.33-1.221-.829-2.021-.893-.428.087-.318.584-.657.752-.297.087-.728.12-.987-.047-.054-.408.015-.593.188-.705.519-.336 1.82.281 2.304-.423.259-.471-.209-.819-.47-.988l-4.322.564-.094-.093c.096-.138.211-.299.33-.423.352-.375.8-.614 1.315-.518l-.093.47c.733 0 1.369-.368 1.925-.799 1.372-.428 3.456.803 3.758-1.079-.253-1.028-1.276-.379-1.832-.471.133-.254.282-.55.282-.893-.297-.643-.99-.724-1.55-.845zm-1.41 7.705c.071.007.18.047.283.094 0 .431-.083.867-.518 1.033 0-.166-.075-.537-.048-.797.014-.131.054-.23.141-.282.045-.026.073-.054.142-.048zm-2.959.329c.07-.007.18.024.283.047h.281v.987l-1.033.094c.192-.34-.024-1.069.469-1.128zM149.685 1.221c-.375-.054-.728.027-.94.329l.425 1.925c-.34.295-.747.295-1.129.423-.191.022-.427.051-.656.093-.689.128-1.409.182-1.409-.845-.339-.125-.645-.629-1.033-.282-.128 1.282-1.01 2.288-.798 3.617.214.386.432 1.028 1.035.94.772-.341.555-1.368.985-1.973l1.551-.658c.173-.011.376-.08.564-.141a5.38 5.38 0 0 1 .563-.14c.38-.081.752-.053 1.034.375.388.128.789.08 1.174-.095.039-.08.085-.128.141-.188.058-.057.119-.15.189-.188.422-.229 1.056-.101 1.503 0-.17.684-1.065 1.078-1.362 1.551.165.032.316.052.468.047.155-.005.324-.013.47-.047.295-.067.571-.174.847-.281.551-.215 1.045-.406 1.645-.235.387.098.895.17 1.268 0a.88.88 0 0 0 .33-.282c.128-.383.12-.83-.095-1.175a.767.767 0 0 1-.282-.047c-.635-.262-.915-1.196-1.737-1.082-.607.575-1.404.665-2.208.611-.268-.019-.53-.063-.799-.094.129-.727-.313-1.226-.657-1.785-.305-.126-.712-.32-1.087-.373zm-1.786 4.181c-1.287 1.889-2.879 3.753-3.993 5.686 2.146-.648 4.002-2.377 5.544-4.087l.093-.705c-.166-.774-1.003-.81-1.644-.894zm5.685.752c-.263.005-.519.103-.798.33-.16.042-.336.081-.518.093-.542.036-1.13-.004-1.455.188.063.107.156.163.281.235.376.221.87.398.518.846l.565-.047c.861.214 1.405 1.009 1.785 1.692.607.213 1.158-.177 1.503-.518.215-.391.221-.893.141-1.363-.517-.641-1.23-1.47-2.022-1.456zm-1.739 2.725c-1.283.901-2.966.778-4.464 1.034-.021.236.022.467.093.658.072.19.192.37.33.518.272.294.625.506.988.657-.254.556.105 1.319-.235 1.879-.854.125-1.767.087-2.536.516-.308.13-.229.398-.141.611.297.339.661.847 1.175.798a26.384 26.384 0 0 1 5.637-.282c.62.038 1.254.101 1.832.188.601-.39.826-1.006.659-1.69-.559-.391-1.046-.812-1.691-.988-.641.256-1.403.421-2.163.377a3.962 3.962 0 0 1-.751-.142 7.599 7.599 0 0 1 .141-1.973l1.832-.189c.432-.209.782-.705.61-1.174-.297-.428-.84-.621-1.316-.798zM126.052 1.315c-.641.471-.122 1.384-.375 2.066l.282.282c.433.127 1.073.211 1.457-.047.181-.342.485-.652.28-1.127-.515-.333-.961-1.174-1.644-1.174zm4.697 1.221a1.77 1.77 0 0 0-.657.142.652.652 0 0 0-.047.517c.048.152.143.288.234.424.184.271.328.526.047.893h.282c.515.13.683.604.894.988.474.124.73-.22 1.033-.519.167-.432.351-1.078.045-1.55-.478-.514-1.143-.9-1.831-.895zm-3.805 1.551-2.162.893a1.404 1.404 0 0 0-.375-.469 2.675 2.675 0 0 0-.613-.377c-.251 1.328.043 2.908-.046 4.323l-.188.375c-.853.167-1.679.41-2.49.752-.132.383.065.728.188 1.033.646.209 1.432 0 2.068 0 .13.512-.18.853-.094 1.364-.169.514-.282 1.229-.801 1.315l-.138 1.457c0 .216.026.468.282.468.187-.156.333-.292.47-.468.135-.177.233-.369.329-.565.568-1.169.511-2.6.797-3.852.472.383.375 1.177.895 1.645a.426.426 0 0 0 .235 0 .732.732 0 0 0 .235-.142 1.65 1.65 0 0 0 .329-.423.542.542 0 0 0 .093-.281.914.914 0 0 0-.047-.33 3.609 3.609 0 0 0-.282-.609c.087-.259.39-.058.518-.188.256.685.087 1.619.048 2.302-.215.988-1.187.043-1.785 0a.427.427 0 0 0 .091.33c.072.091.19.173.19.283 1.048.412.688 1.938 1.644 2.256.139.043.273.056.471.045.432-.294.814-.604 1.079-1.08-.089-1.458-.121-2.944.048-4.322.389.049.931.208 1.268-.047.172-.341.505-.605.375-1.035-.212-.765-1.079-.598-1.645-.938-.204-1.073.884-1.596.848-2.584-.3-.733-1.104-.966-1.835-1.131zm-.657 1.128.141.187c-.066.496-.052.939-.047 1.41.006.471-.005.963-.047 1.456h-.048c0-.515.074-1.336-.609-1.55-.3-.086-.858-.318-.94.235l.094 1.645c-.042.044-.114.047-.188.047h-.236c-.078-.819.198-1.679.236-2.49zm7.706.048c-1.796.601-3.707.787-5.544 1.221-.092.337.099.541.188.799 1.41-.226 2.979-.432 4.557-.47.526-.014 1.072.025 1.598.048.252-.13.375-.447.375-.706-.254-.347-.62-1.024-1.174-.892zm-1.457 2.254c-.554.062-1.221.531-1.832.424-.295-.099-.581-.225-.8-.093a.514.514 0 0 0-.188.234c.175 1.2-.034 2.347-.424 3.337-.29.514-.53 1.326-1.174 1.408v.518c0 .346.125.658.516.658.448-.298.803-.727 1.083-1.176.278-.449.518-.938.751-1.408.085-.215.13-.435.189-.658.17-.666.257-1.333.517-1.974.219 0 .532-.212.706-.047-.217 1.34-.669 2.994-.471 4.416.04.285.14.586.236.847.192.519.484.951.987 1.315.709.191 1.515.284 2.254.188.186-.023.339-.048.518-.094.533-.137 1.053-.379 1.457-.751.206-.593.177-1.158.046-1.69-.042-.177-.125-.342-.188-.518-.242-.695-.572-1.362-.657-2.066-.212 1.026-.112 2.302-1.222 2.82-.595.215-1.448.127-1.784-.47-.282-.708-.294-1.499-.189-2.255.054-.378.119-.767.236-1.127.118-.361.264-.664.422-.986l-.093-.282c-.261-.489-.564-.606-.896-.57z" style="fill:#19294f;fill-opacity:1" transform="matrix(5.39462 0 0 5.39462 -.002 0)"/></svg>